<mxfile host="app.diagrams.net" modified="2024-03-01T08:43:48.613Z" agent="Mozilla/5.0 (Windows NT 10.0; WOW64) AppleWebKit/537.36 (KHTML, like Gecko) Chrome/86.0.4240.198 Safari/537.36" etag="DzZp1NLd0wJnb0XgJlXI" version="24.0.0" type="github">
  <diagram id="kgpKYQtTHZ0yAKxKKP6v" name="Page-1">
    <mxGraphModel dx="1434" dy="756" grid="1" gridSize="10" guides="1" tooltips="1" connect="1" arrows="1" fold="1" page="1" pageScale="1" pageWidth="850" pageHeight="1100" math="0" shadow="0">
      <root>
        <mxCell id="0" />
        <mxCell id="1" parent="0" />
        <mxCell id="B-kadtzuYwq-er2_6rZJ-1" value="Bonder Architecture" style="swimlane;childLayout=stackLayout;resizeParent=1;resizeParentMax=0;horizontal=0;startSize=20;horizontalStack=0;html=1;fillColor=none;" vertex="1" parent="1">
          <mxGeometry x="19" y="80" width="820" height="480" as="geometry" />
        </mxCell>
        <mxCell id="B-kadtzuYwq-er2_6rZJ-2" value="Frontend" style="swimlane;startSize=20;horizontal=0;html=1;" vertex="1" parent="B-kadtzuYwq-er2_6rZJ-1">
          <mxGeometry x="20" width="800" height="120" as="geometry" />
        </mxCell>
        <mxCell id="B-kadtzuYwq-er2_6rZJ-7" value="Recipe" style="swimlane;startSize=20;horizontal=0;html=1;" vertex="1" parent="B-kadtzuYwq-er2_6rZJ-1">
          <mxGeometry x="20" y="120" width="800" height="120" as="geometry" />
        </mxCell>
        <mxCell id="B-kadtzuYwq-er2_6rZJ-16" value="User" style="shape=umlActor;verticalLabelPosition=bottom;verticalAlign=top;html=1;" vertex="1" parent="B-kadtzuYwq-er2_6rZJ-7">
          <mxGeometry x="149" y="-100" width="30" height="60" as="geometry" />
        </mxCell>
        <mxCell id="B-kadtzuYwq-er2_6rZJ-12" value="Recipe" style="swimlane;fontStyle=1;align=center;verticalAlign=top;childLayout=stackLayout;horizontal=1;startSize=26;horizontalStack=0;resizeParent=1;resizeParentMax=0;resizeLast=0;collapsible=1;marginBottom=0;whiteSpace=wrap;html=1;" vertex="1" parent="B-kadtzuYwq-er2_6rZJ-7">
          <mxGeometry x="91" y="15" width="160" height="86" as="geometry">
            <mxRectangle x="320" y="15" width="80" height="30" as="alternateBounds" />
          </mxGeometry>
        </mxCell>
        <mxCell id="B-kadtzuYwq-er2_6rZJ-13" value="+ field: type" style="text;strokeColor=none;fillColor=none;align=left;verticalAlign=top;spacingLeft=4;spacingRight=4;overflow=hidden;rotatable=0;points=[[0,0.5],[1,0.5]];portConstraint=eastwest;whiteSpace=wrap;html=1;" vertex="1" parent="B-kadtzuYwq-er2_6rZJ-12">
          <mxGeometry y="26" width="160" height="26" as="geometry" />
        </mxCell>
        <mxCell id="B-kadtzuYwq-er2_6rZJ-14" value="" style="line;strokeWidth=1;fillColor=none;align=left;verticalAlign=middle;spacingTop=-1;spacingLeft=3;spacingRight=3;rotatable=0;labelPosition=right;points=[];portConstraint=eastwest;strokeColor=inherit;" vertex="1" parent="B-kadtzuYwq-er2_6rZJ-12">
          <mxGeometry y="52" width="160" height="8" as="geometry" />
        </mxCell>
        <mxCell id="B-kadtzuYwq-er2_6rZJ-15" value="+ method(type): type" style="text;strokeColor=none;fillColor=none;align=left;verticalAlign=top;spacingLeft=4;spacingRight=4;overflow=hidden;rotatable=0;points=[[0,0.5],[1,0.5]];portConstraint=eastwest;whiteSpace=wrap;html=1;" vertex="1" parent="B-kadtzuYwq-er2_6rZJ-12">
          <mxGeometry y="60" width="160" height="26" as="geometry" />
        </mxCell>
        <mxCell id="B-kadtzuYwq-er2_6rZJ-17" value="" style="endArrow=open;endFill=1;endSize=12;html=1;rounded=0;entryX=0.463;entryY=0.035;entryDx=0;entryDy=0;entryPerimeter=0;" edge="1" parent="B-kadtzuYwq-er2_6rZJ-7" source="B-kadtzuYwq-er2_6rZJ-16" target="B-kadtzuYwq-er2_6rZJ-12">
          <mxGeometry width="160" relative="1" as="geometry">
            <mxPoint x="132" y="-10" as="sourcePoint" />
            <mxPoint x="321" y="-60" as="targetPoint" />
          </mxGeometry>
        </mxCell>
        <mxCell id="B-kadtzuYwq-er2_6rZJ-22" value="RecipeExecutor" style="swimlane;fontStyle=1;align=center;verticalAlign=top;childLayout=stackLayout;horizontal=1;startSize=26;horizontalStack=0;resizeParent=1;resizeParentMax=0;resizeLast=0;collapsible=1;marginBottom=0;whiteSpace=wrap;html=1;" vertex="1" parent="B-kadtzuYwq-er2_6rZJ-7">
          <mxGeometry x="310" y="15" width="160" height="86" as="geometry" />
        </mxCell>
        <mxCell id="B-kadtzuYwq-er2_6rZJ-23" value="+ field: type" style="text;strokeColor=none;fillColor=none;align=left;verticalAlign=top;spacingLeft=4;spacingRight=4;overflow=hidden;rotatable=0;points=[[0,0.5],[1,0.5]];portConstraint=eastwest;whiteSpace=wrap;html=1;" vertex="1" parent="B-kadtzuYwq-er2_6rZJ-22">
          <mxGeometry y="26" width="160" height="26" as="geometry" />
        </mxCell>
        <mxCell id="B-kadtzuYwq-er2_6rZJ-24" value="" style="line;strokeWidth=1;fillColor=none;align=left;verticalAlign=middle;spacingTop=-1;spacingLeft=3;spacingRight=3;rotatable=0;labelPosition=right;points=[];portConstraint=eastwest;strokeColor=inherit;" vertex="1" parent="B-kadtzuYwq-er2_6rZJ-22">
          <mxGeometry y="52" width="160" height="8" as="geometry" />
        </mxCell>
        <mxCell id="B-kadtzuYwq-er2_6rZJ-25" value="+ method(type): type" style="text;strokeColor=none;fillColor=none;align=left;verticalAlign=top;spacingLeft=4;spacingRight=4;overflow=hidden;rotatable=0;points=[[0,0.5],[1,0.5]];portConstraint=eastwest;whiteSpace=wrap;html=1;" vertex="1" parent="B-kadtzuYwq-er2_6rZJ-22">
          <mxGeometry y="60" width="160" height="26" as="geometry" />
        </mxCell>
        <mxCell id="B-kadtzuYwq-er2_6rZJ-32" value="" style="endArrow=classic;html=1;rounded=0;entryX=0;entryY=0.5;entryDx=0;entryDy=0;exitX=1;exitY=0.5;exitDx=0;exitDy=0;" edge="1" parent="B-kadtzuYwq-er2_6rZJ-7" source="B-kadtzuYwq-er2_6rZJ-13" target="B-kadtzuYwq-er2_6rZJ-23">
          <mxGeometry width="50" height="50" relative="1" as="geometry">
            <mxPoint x="251" y="60" as="sourcePoint" />
            <mxPoint x="301" y="10" as="targetPoint" />
          </mxGeometry>
        </mxCell>
        <mxCell id="B-kadtzuYwq-er2_6rZJ-3" value="Backend" style="swimlane;startSize=20;horizontal=0;html=1;" vertex="1" parent="B-kadtzuYwq-er2_6rZJ-1">
          <mxGeometry x="20" y="240" width="800" height="120" as="geometry">
            <mxRectangle x="20" y="120" width="460" height="30" as="alternateBounds" />
          </mxGeometry>
        </mxCell>
        <mxCell id="B-kadtzuYwq-er2_6rZJ-18" value="XQ.BA.ZAxis" style="shape=module;align=left;spacingLeft=20;align=center;verticalAlign=top;whiteSpace=wrap;html=1;" vertex="1" parent="B-kadtzuYwq-er2_6rZJ-3">
          <mxGeometry x="100" y="40" width="100" height="50" as="geometry" />
        </mxCell>
        <mxCell id="B-kadtzuYwq-er2_6rZJ-19" value="XQ.BA.Heater" style="shape=module;align=left;spacingLeft=20;align=center;verticalAlign=top;whiteSpace=wrap;html=1;" vertex="1" parent="B-kadtzuYwq-er2_6rZJ-3">
          <mxGeometry x="270" y="40" width="100" height="50" as="geometry" />
        </mxCell>
        <mxCell id="B-kadtzuYwq-er2_6rZJ-20" value="XQ.BA.Chamber" style="shape=module;align=left;spacingLeft=20;align=center;verticalAlign=top;whiteSpace=wrap;html=1;" vertex="1" parent="B-kadtzuYwq-er2_6rZJ-3">
          <mxGeometry x="441" y="40" width="100" height="50" as="geometry" />
        </mxCell>
        <mxCell id="B-kadtzuYwq-er2_6rZJ-21" value="XQ.BA.Voltage" style="shape=module;align=left;spacingLeft=20;align=center;verticalAlign=top;whiteSpace=wrap;html=1;" vertex="1" parent="B-kadtzuYwq-er2_6rZJ-3">
          <mxGeometry x="601" y="40" width="100" height="50" as="geometry" />
        </mxCell>
        <mxCell id="B-kadtzuYwq-er2_6rZJ-31" value="" style="rounded=1;whiteSpace=wrap;html=1;fillColor=none;" vertex="1" parent="B-kadtzuYwq-er2_6rZJ-3">
          <mxGeometry x="55.5" y="25" width="689" height="80" as="geometry" />
        </mxCell>
        <mxCell id="B-kadtzuYwq-er2_6rZJ-4" value="Hardware" style="swimlane;startSize=20;horizontal=0;html=1;" vertex="1" parent="B-kadtzuYwq-er2_6rZJ-1">
          <mxGeometry x="20" y="360" width="800" height="120" as="geometry" />
        </mxCell>
        <mxCell id="B-kadtzuYwq-er2_6rZJ-8" value="&lt;font style=&quot;font-size: 16px;&quot;&gt;Z-Axis&lt;/font&gt;" style="rounded=0;whiteSpace=wrap;html=1;" vertex="1" parent="B-kadtzuYwq-er2_6rZJ-4">
          <mxGeometry x="91" y="30" width="120" height="60" as="geometry" />
        </mxCell>
        <mxCell id="B-kadtzuYwq-er2_6rZJ-9" value="&lt;span style=&quot;font-size: 16px;&quot;&gt;Heater&lt;/span&gt;" style="rounded=0;whiteSpace=wrap;html=1;" vertex="1" parent="B-kadtzuYwq-er2_6rZJ-4">
          <mxGeometry x="266" y="30" width="120" height="60" as="geometry" />
        </mxCell>
        <mxCell id="B-kadtzuYwq-er2_6rZJ-10" value="&lt;span style=&quot;font-size: 16px;&quot;&gt;Chamber&lt;/span&gt;" style="rounded=0;whiteSpace=wrap;html=1;" vertex="1" parent="B-kadtzuYwq-er2_6rZJ-4">
          <mxGeometry x="441" y="30" width="120" height="60" as="geometry" />
        </mxCell>
        <mxCell id="B-kadtzuYwq-er2_6rZJ-11" value="&lt;span style=&quot;font-size: 16px;&quot;&gt;Voltage&lt;/span&gt;" style="rounded=0;whiteSpace=wrap;html=1;" vertex="1" parent="B-kadtzuYwq-er2_6rZJ-4">
          <mxGeometry x="601" y="30" width="120" height="60" as="geometry" />
        </mxCell>
        <mxCell id="B-kadtzuYwq-er2_6rZJ-26" value="RecipeWatcher" style="swimlane;fontStyle=1;align=center;verticalAlign=top;childLayout=stackLayout;horizontal=1;startSize=26;horizontalStack=0;resizeParent=1;resizeParentMax=0;resizeLast=0;collapsible=1;marginBottom=0;whiteSpace=wrap;html=1;" vertex="1" parent="1">
          <mxGeometry x="850" y="339" width="160" height="86" as="geometry" />
        </mxCell>
        <mxCell id="B-kadtzuYwq-er2_6rZJ-27" value="+ field: type" style="text;strokeColor=none;fillColor=none;align=left;verticalAlign=top;spacingLeft=4;spacingRight=4;overflow=hidden;rotatable=0;points=[[0,0.5],[1,0.5]];portConstraint=eastwest;whiteSpace=wrap;html=1;" vertex="1" parent="B-kadtzuYwq-er2_6rZJ-26">
          <mxGeometry y="26" width="160" height="26" as="geometry" />
        </mxCell>
        <mxCell id="B-kadtzuYwq-er2_6rZJ-28" value="" style="line;strokeWidth=1;fillColor=none;align=left;verticalAlign=middle;spacingTop=-1;spacingLeft=3;spacingRight=3;rotatable=0;labelPosition=right;points=[];portConstraint=eastwest;strokeColor=inherit;" vertex="1" parent="B-kadtzuYwq-er2_6rZJ-26">
          <mxGeometry y="52" width="160" height="8" as="geometry" />
        </mxCell>
        <mxCell id="B-kadtzuYwq-er2_6rZJ-29" value="+ method(type): type" style="text;strokeColor=none;fillColor=none;align=left;verticalAlign=top;spacingLeft=4;spacingRight=4;overflow=hidden;rotatable=0;points=[[0,0.5],[1,0.5]];portConstraint=eastwest;whiteSpace=wrap;html=1;" vertex="1" parent="B-kadtzuYwq-er2_6rZJ-26">
          <mxGeometry y="60" width="160" height="26" as="geometry" />
        </mxCell>
        <mxCell id="B-kadtzuYwq-er2_6rZJ-33" value="" style="endArrow=classic;html=1;rounded=0;" edge="1" parent="1" target="B-kadtzuYwq-er2_6rZJ-22">
          <mxGeometry width="50" height="50" relative="1" as="geometry">
            <mxPoint x="920" y="340" as="sourcePoint" />
            <mxPoint x="970" y="290" as="targetPoint" />
            <Array as="points">
              <mxPoint x="920" y="260" />
            </Array>
          </mxGeometry>
        </mxCell>
        <mxCell id="B-kadtzuYwq-er2_6rZJ-34" value="" style="endArrow=classic;html=1;rounded=0;exitX=0.006;exitY=0.769;exitDx=0;exitDy=0;exitPerimeter=0;entryX=1;entryY=0.5;entryDx=0;entryDy=0;" edge="1" parent="1" source="B-kadtzuYwq-er2_6rZJ-27" target="B-kadtzuYwq-er2_6rZJ-31">
          <mxGeometry width="50" height="50" relative="1" as="geometry">
            <mxPoint x="820" y="400" as="sourcePoint" />
            <mxPoint x="870" y="350" as="targetPoint" />
          </mxGeometry>
        </mxCell>
      </root>
    </mxGraphModel>
  </diagram>
</mxfile>
